<svg width="38" height="38" viewBox="0 0 38 38" fill="none" xmlns="http://www.w3.org/2000/svg">
<mask id="mask0_2_555" style="mask-type:alpha" maskUnits="userSpaceOnUse" x="0" y="0" width="38" height="38">
<rect x="0.547424" y="0.398438" width="37.2" height="37.2" fill="#D9D9D9"/>
</mask>
<g mask="url(#mask0_2_555)">
<path d="M12.1709 25.9719H26.1209V24.4219H12.1709V25.9719ZM19.1459 21.0239L24.2729 15.8969L23.1759 14.7999L19.9209 18.037V10.4719H18.3709V18.037L15.1159 14.7999L14.0188 15.8969L19.1459 21.0239ZM19.1509 32.9469C17.2219 32.9469 15.4083 32.5808 13.71 31.8487C12.012 31.1166 10.5348 30.123 9.27856 28.868C8.02229 27.6131 7.02783 26.1372 6.2952 24.4405C5.56231 22.744 5.19586 20.9311 5.19586 19.0019C5.19586 17.0729 5.56192 15.2593 6.29404 13.561C7.02615 11.863 8.0197 10.3858 9.27469 9.12957C10.5297 7.8733 12.0055 6.87885 13.7023 6.14621C15.3987 5.41332 17.2116 5.04688 19.1408 5.04688C21.0698 5.04688 22.8834 5.41293 24.5817 6.14505C26.2797 6.87717 27.7569 7.87072 29.0132 9.1257C30.2694 10.3807 31.2639 11.8565 31.9965 13.5533C32.7294 15.2498 33.0959 17.0626 33.0959 18.9918C33.0959 20.9208 32.7298 22.7344 31.9977 24.4327C31.2656 26.1307 30.272 27.6079 29.017 28.8642C27.7621 30.1204 26.2862 31.1149 24.5895 31.8475C22.893 32.5804 21.0801 32.9469 19.1509 32.9469ZM19.1459 31.3969C22.6075 31.3969 25.5396 30.1956 27.9421 27.7931C30.3446 25.3906 31.5459 22.4585 31.5459 18.9969C31.5459 15.5352 30.3446 12.6031 27.9421 10.2006C25.5396 7.79812 22.6075 6.59687 19.1459 6.59687C15.6842 6.59687 12.7521 7.79812 10.3496 10.2006C7.94711 12.6031 6.74586 15.5352 6.74586 18.9969C6.74586 22.4585 7.94711 25.3906 10.3496 27.7931C12.7521 30.1956 15.6842 31.3969 19.1459 31.3969Z" fill="white"/>
</g>
</svg>
