<svg width="63" height="79" viewBox="0 0 63 79" fill="none" xmlns="http://www.w3.org/2000/svg">
<path d="M55.8019 58.7678C58.2712 60.521 59.5712 62.5098 59.5712 64.5343C59.5712 66.5588 58.2712 68.5476 55.8019 70.3009C53.3326 72.0541 49.7809 73.51 45.5039 74.5223C41.2268 75.5345 36.3752 76.0674 31.4365 76.0674C26.4978 76.0674 21.6461 75.5345 17.3691 74.5223C13.0921 73.51 9.54039 72.0541 7.07104 70.3009C4.6017 68.5476 3.3017 66.5588 3.3017 64.5343C3.3017 62.5098 4.6017 60.521 7.07104 58.7678" stroke="#216900" stroke-width="5.71725" stroke-linecap="round"/>
<path d="M56.2602 31.8567C56.2602 52.4198 35.6194 65.8484 31.9802 68.0562C31.6386 68.2634 31.2323 68.2634 30.8907 68.0562C27.2515 65.8484 6.61064 52.4198 6.61064 31.8567C6.61064 14.557 18.6391 3.02393 31.4354 3.02393C44.6753 3.02393 56.2602 14.557 56.2602 31.8567Z" stroke="#216900" stroke-width="5.71725"/>
<path d="M41.8179 31.857C41.8179 39.1874 36.7835 44.3758 31.4366 44.3758C26.0897 44.3758 21.0553 39.1874 21.0553 31.857C21.0553 24.5265 26.0897 19.3381 31.4366 19.3381C36.7835 19.3381 41.8179 24.5265 41.8179 31.857Z" stroke="#216900" stroke-width="5.71725"/>
</svg>
