<svg width="66" height="42" viewBox="0 0 66 42" fill="none" xmlns="http://www.w3.org/2000/svg">
<path d="M61.6856 5.88027C57.8344 6.21191 52.7715 11.5835 47.8904 14.6718C41.9029 18.4569 32.5874 15.4138 32.5856 15.4138C34.022 14.4721 39.864 12.5292 41.0415 11.8085C47.2935 7.9653 46.7613 -0.0411416 43.7841 0.0243248C39.8519 0.116435 37.5403 1.46509 29.6887 2.95991C23.7383 4.08959 16.7019 3.67623 13.3259 5.4763C8.56093 8.01833 0.888367 25.1185 0.888367 25.1185L12.7564 41.1771C12.7564 41.1771 20.1019 31.0737 23.6756 31.0737C31.8197 31.0737 32.1464 30.9202 39.7089 30.3472C42.9274 30.1066 43.5984 29.9222 45.4363 29.0564C55.2408 24.4276 65.7653 12.1014 65.959 10.6177C66.4095 7.18351 63.717 5.70315 61.6856 5.88027Z" fill="#216900"/>
</svg>
