<svg width="38" height="38" viewBox="0 0 38 38" fill="none" xmlns="http://www.w3.org/2000/svg">
<mask id="mask0_2_562" style="mask-type:alpha" maskUnits="userSpaceOnUse" x="0" y="0" width="38" height="38">
<rect x="0.747375" y="0.398438" width="37.2" height="37.2" fill="#D9D9D9"/>
</mask>
<g mask="url(#mask0_2_562)">
<path d="M10.3422 27.4978C11.6597 26.55 13.0577 25.8005 14.5361 25.2492C16.0145 24.6976 17.6152 24.4219 19.338 24.4219C21.0608 24.4219 22.6615 24.6976 24.1399 25.2492C25.6183 25.8005 27.0163 26.55 28.3338 27.4978C29.3573 26.4387 30.1805 25.1878 30.8034 23.7453C31.4265 22.3025 31.738 20.7197 31.738 18.9969C31.738 15.561 30.5303 12.6354 28.1149 10.22C25.6995 7.80458 22.7738 6.59687 19.338 6.59687C15.9022 6.59687 12.9765 7.80458 10.5611 10.22C8.14571 12.6354 6.938 15.561 6.938 18.9969C6.938 20.7197 7.24955 22.3025 7.87265 23.7453C8.49549 25.1878 9.31867 26.4387 10.3422 27.4978ZM19.3388 19.7719C18.0326 19.7719 16.931 19.3235 16.0338 18.4269C15.1366 17.5302 14.688 16.4288 14.688 15.1227C14.688 13.8165 15.1363 12.7149 16.033 11.8177C16.9297 10.9205 18.0311 10.4719 19.3372 10.4719C20.6434 10.4719 21.745 10.9202 22.6422 11.8169C23.5394 12.7136 23.988 13.815 23.988 15.1211C23.988 16.4272 23.5397 17.5289 22.643 18.4261C21.7463 19.3233 20.6449 19.7719 19.3388 19.7719ZM19.338 32.9469C17.3925 32.9469 15.5712 32.5847 13.8743 31.8603C12.1773 31.136 10.7008 30.1459 9.44474 28.8901C8.18898 27.6341 7.19892 26.1576 6.47455 24.4606C5.75018 22.7636 5.388 20.9424 5.388 18.9969C5.388 17.0514 5.75018 15.2301 6.47455 13.5331C7.19892 11.8361 8.18898 10.3596 9.44474 9.10361C10.7008 7.84785 12.1773 6.85779 13.8743 6.13342C15.5712 5.40906 17.3925 5.04688 19.338 5.04688C21.2835 5.04688 23.1048 5.40906 24.8018 6.13342C26.4987 6.85779 27.9752 7.84785 29.2313 9.10361C30.487 10.3596 31.4771 11.8361 32.2015 13.5331C32.9258 15.2301 33.288 17.0514 33.288 18.9969C33.288 20.9424 32.9258 22.7636 32.2015 24.4606C31.4771 26.1576 30.487 27.6341 29.2313 28.8901C27.9752 30.1459 26.4987 31.136 24.8018 31.8603C23.1048 32.5847 21.2835 32.9469 19.338 32.9469ZM19.338 31.3969C20.7668 31.3969 22.1728 31.1469 23.5559 30.6471C24.9388 30.1474 26.134 29.4634 27.1415 28.5949C26.134 27.786 24.9685 27.1466 23.6451 26.6767C22.3216 26.2068 20.8859 25.9719 19.338 25.9719C17.7901 25.9719 16.3493 26.2019 15.0158 26.662C13.6826 27.1221 12.5221 27.7664 11.5345 28.5949C12.542 29.4634 13.7372 30.1474 15.1201 30.6471C16.5032 31.1469 17.9092 31.3969 19.338 31.3969ZM19.338 18.2219C20.2083 18.2219 20.9426 17.9229 21.5409 17.3248C22.139 16.7265 22.438 15.9922 22.438 15.1219C22.438 14.2515 22.139 13.5172 21.5409 12.9189C20.9426 12.3209 20.2083 12.0219 19.338 12.0219C18.4677 12.0219 17.7334 12.3209 17.1351 12.9189C16.537 13.5172 16.238 14.2515 16.238 15.1219C16.238 15.9922 16.537 16.7265 17.1351 17.3248C17.7334 17.9229 18.4677 18.2219 19.338 18.2219Z" fill="white"/>
</g>
</svg>
