<svg width="60" height="61" viewBox="0 0 60 61" fill="none" xmlns="http://www.w3.org/2000/svg">
<mask id="mask0_2_656" style="mask-type:alpha" maskUnits="userSpaceOnUse" x="0" y="0" width="60" height="61">
<rect y="0.0239258" width="60" height="60" fill="#D9D9D9"/>
</mask>
<g mask="url(#mask0_2_656)">
<path d="M29 46.2739H30.875V43.3989C32.5833 43.3156 34.2813 42.7218 35.9688 41.6177C37.6563 40.5135 38.5 38.7739 38.5 36.3989C38.5 34.6489 37.9583 33.1906 36.875 32.0239C35.7917 30.8573 33.75 29.7323 30.75 28.6489C27.9167 27.6489 26.1458 26.7948 25.4375 26.0864C24.7292 25.3781 24.375 24.3573 24.375 23.0239C24.375 21.6906 24.9062 20.5656 25.9688 19.6489C27.0312 18.7323 28.4167 18.2739 30.125 18.2739C31.375 18.2739 32.4375 18.5552 33.3125 19.1177C34.1875 19.6802 34.9167 20.3989 35.5 21.2739L37.125 20.6489C36.5 19.5239 35.6354 18.5968 34.5312 17.8677C33.4271 17.1385 32.25 16.7323 31 16.6489V13.7739H29.125V16.6489C26.9167 16.9823 25.2604 17.7635 24.1562 18.9927C23.0521 20.2218 22.5 21.5656 22.5 23.0239C22.5 24.7739 23.0625 26.1698 24.1875 27.2114C25.3125 28.2531 27.25 29.2739 30 30.2739C32.7083 31.2739 34.5104 32.1802 35.4062 32.9927C36.3021 33.8052 36.75 34.9406 36.75 36.3989C36.75 38.2739 36.0625 39.6177 34.6875 40.4302C33.3125 41.2427 31.875 41.6489 30.375 41.6489C28.9167 41.6489 27.5938 41.2323 26.4062 40.3989C25.2188 39.5656 24.25 38.3989 23.5 36.8989L21.875 37.6489C22.625 39.2739 23.5938 40.5239 24.7812 41.3989C25.9688 42.2739 27.375 42.8989 29 43.2739V46.2739ZM30 51.7739C27 51.7739 24.1771 51.201 21.5312 50.0552C18.8854 48.9093 16.5833 47.3573 14.625 45.3989C12.6667 43.4406 11.1146 41.1385 9.96875 38.4927C8.82292 35.8468 8.25 33.0239 8.25 30.0239C8.25 27.0239 8.82292 24.201 9.96875 21.5552C11.1146 18.9093 12.6667 16.6073 14.625 14.6489C16.5833 12.6906 18.8854 11.1385 21.5312 9.99268C24.1771 8.84684 27 8.27393 30 8.27393C33 8.27393 35.8229 8.84684 38.4688 9.99268C41.1146 11.1385 43.4167 12.6906 45.375 14.6489C47.3333 16.6073 48.8854 18.9093 50.0312 21.5552C51.1771 24.201 51.75 27.0239 51.75 30.0239C51.75 33.0239 51.1771 35.8468 50.0312 38.4927C48.8854 41.1385 47.3333 43.4406 45.375 45.3989C43.4167 47.3573 41.1146 48.9093 38.4688 50.0552C35.8229 51.201 33 51.7739 30 51.7739ZM30 50.0239C35.5833 50.0239 40.3125 48.0864 44.1875 44.2114C48.0625 40.3364 50 35.6073 50 30.0239C50 24.4406 48.0625 19.7114 44.1875 15.8364C40.3125 11.9614 35.5833 10.0239 30 10.0239C24.4167 10.0239 19.6875 11.9614 15.8125 15.8364C11.9375 19.7114 10 24.4406 10 30.0239C10 35.6073 11.9375 40.3364 15.8125 44.2114C19.6875 48.0864 24.4167 50.0239 30 50.0239Z" fill="#1C1B1F"/>
</g>
</svg>
