<svg width="74" height="68" viewBox="0 0 74 68" fill="none" xmlns="http://www.w3.org/2000/svg">
<path d="M44.753 5.68628H29.2233C23.7422 5.68628 22.5242 8.23441 21.8238 11.3771L19.3269 22.4754H54.6494L52.1524 11.3771C51.4521 8.23441 50.2341 5.68628 44.753 5.68628Z" stroke="#216900" stroke-width="5.93165" stroke-linecap="round" stroke-linejoin="round"/>
<path d="M59.0342 40.5669C59.2778 42.9735 57.2072 45.0403 54.558 45.0403H50.4167C48.0416 45.0403 47.7066 44.106 47.2803 42.9169L46.8236 41.6993C46.2145 40.0289 45.8187 38.8964 42.6214 38.8964H31.3243C28.1575 38.8964 27.6702 40.1705 27.1221 41.6993L26.6654 42.9169C26.2391 44.0777 25.9041 45.0403 23.529 45.0403H19.3877C16.7386 45.0403 14.6679 42.9735 14.9115 40.5669L16.16 28.053C16.4645 24.9669 17.1039 22.447 22.8895 22.447H51.0562C56.8417 22.447 57.4812 24.9669 57.7857 28.053L59.0342 40.5669Z" stroke="#216900" stroke-width="5.93165" stroke-linecap="round" stroke-linejoin="round"/>
<path d="M19.3269 16.3035H17.104" stroke="#216900" stroke-width="5.93165" stroke-linecap="round" stroke-linejoin="round"/>
<path d="M56.8722 16.3035H54.6493" stroke="#216900" stroke-width="5.93165" stroke-linecap="round" stroke-linejoin="round"/>
<path d="M23.742 30.6863H30.3498" stroke="#216900" stroke-width="5.93165" stroke-linecap="round" stroke-linejoin="round"/>
<path d="M43.6263 30.6863H50.2341" stroke="#216900" stroke-width="5.93165" stroke-linecap="round" stroke-linejoin="round"/>
<path d="M36.9879 48.1548V50.986" stroke="#216900" stroke-width="5.93165" stroke-linecap="round" stroke-linejoin="round"/>
<path d="M36.9879 59.4797V62.311" stroke="#216900" stroke-width="5.93165" stroke-linecap="round" stroke-linejoin="round"/>
<path d="M9.58249 50.9861L6.53745 62.311" stroke="#216900" stroke-width="5.93165" stroke-linecap="round" stroke-linejoin="round"/>
<path d="M64.3933 50.9861L67.4383 62.311" stroke="#216900" stroke-width="5.93165" stroke-linecap="round" stroke-linejoin="round"/>
</svg>
