<svg width="67" height="64" viewBox="0 0 67 64" fill="none" xmlns="http://www.w3.org/2000/svg">
<path d="M49.9608 19.4399C49.7958 19.4139 49.6033 19.4139 49.4383 19.4399C45.6433 19.3099 42.6183 16.3719 42.6183 12.7319C42.6183 9.01393 45.7808 6.02393 49.7133 6.02393C53.6458 6.02393 56.8082 9.03993 56.8082 12.7319C56.7807 16.3719 53.7558 19.3099 49.9608 19.4399Z" stroke="#585858" stroke-width="2.4" stroke-linecap="round" stroke-linejoin="round"/>
<path d="M47.1283 38.3679C50.8958 38.9659 55.0483 38.3419 57.9633 36.4959C61.8408 34.0519 61.8408 30.0479 57.9633 27.6039C55.0208 25.7579 50.8133 25.1338 47.0458 25.7578" stroke="#585858" stroke-width="2.4" stroke-linecap="round" stroke-linejoin="round"/>
<path d="M16.8781 19.4399C17.0431 19.4139 17.2356 19.4139 17.4006 19.4399C21.1956 19.3099 24.2206 16.3719 24.2206 12.7319C24.2206 9.01393 21.0581 6.02393 17.1256 6.02393C13.1931 6.02393 10.0306 9.03993 10.0306 12.7319C10.0581 16.3719 13.0831 19.3099 16.8781 19.4399Z" stroke="#585858" stroke-width="2.4" stroke-linecap="round" stroke-linejoin="round"/>
<path d="M19.7107 38.3679C15.9432 38.9659 11.7907 38.3419 8.87573 36.4959C4.99823 34.0519 4.99823 30.0479 8.87573 27.6039C11.8182 25.7579 16.0257 25.1338 19.7932 25.7578" stroke="#585858" stroke-width="2.4" stroke-linecap="round" stroke-linejoin="round"/>
<path d="M33.4607 38.8618C33.2957 38.8358 33.1032 38.8358 32.9382 38.8618C29.1432 38.7318 26.1182 35.7938 26.1182 32.1538C26.1182 28.4358 29.2807 25.4458 33.2132 25.4458C37.1457 25.4458 40.3082 28.4618 40.3082 32.1538C40.2807 35.7938 37.2557 38.7578 33.4607 38.8618Z" stroke="#585858" stroke-width="2.4" stroke-linecap="round" stroke-linejoin="round"/>
<path d="M25.4582 47.0519C21.5807 49.4959 21.5807 53.4999 25.4582 55.9439C29.8582 58.7259 37.0632 58.7259 41.4632 55.9439C45.3407 53.4999 45.3407 49.4959 41.4632 47.0519C37.0907 44.2959 29.8582 44.2959 25.4582 47.0519Z" stroke="#585858" stroke-width="2.4" stroke-linecap="round" stroke-linejoin="round"/>
</svg>
